<?xml version="1.0"?>
<svg fill="#FFFFFF" xmlns="http://www.w3.org/2000/svg" viewBox="0 0 24 24" width="48px" height="48px">
    <path d="M12 2.163c3.204 0 3.584.012 4.85.07 1.17.054 1.97.24 2.422.412.612.236 1.053.519 1.517.983.464.464.747.905.983 1.517.172.452.358 1.252.412 2.422.058 1.266.07 1.646.07 4.85s-.012 3.584-.07 4.85c-.054 1.17-.24 1.97-.412 2.422-.236.612-.519 1.053-.983 1.517-.464.464-.905.747-1.517.983-.452.172-1.252.358-2.422.412-1.266.058-1.646.07-4.85.07s-3.584-.012-4.85-.07c-1.17-.054-1.97-.24-2.422-.412-.612-.236-1.053-.519-1.517-.983-.464-.464-.747-.905-.983-1.517-.172-.452-.358-1.252-.412-2.422C2.175 15.787 2.163 15.407 2.163 12s.012-3.584.07-4.85c.054-1.17.24-1.97.412-2.422.236-.612.519-1.053.983-1.517.464-.464.905-.747 1.517-.983.452-.172 1.252-.358 2.422-.412C8.416 2.175 8.796 2.163 12 2.163zm0-2.163c-3.259 0-3.667.012-4.947.072-1.274.059-2.148.275-2.891.587a5.918 5.918 0 0 0-2.141 1.402 5.918 5.918 0 0 0-1.402 2.141c-.312.743-.528 1.617-.587 2.891-.059 1.28-.072 1.688-.072 4.947s.012 3.667.072 4.947c.059 1.274.275 2.148.587 2.891.352.684.819 1.297 1.402 1.88a5.918 5.918 0 0 0 1.88 1.402c.743.312 1.617.528 2.891.587 1.28.059 1.688.072 4.947.072s3.667-.012 4.947-.072c1.274-.059 2.148-.275 2.891-.587a5.918 5.918 0 0 0 1.88-1.402 5.918 5.918 0 0 0 1.402-1.88c.312-.743.528-1.617.587-2.891.059-1.28.072-1.688.072-4.947s-.012-3.667-.072-4.947c-.059-1.274-.275-2.148-.587-2.891a5.918 5.918 0 0 0-1.402-1.88 5.918 5.918 0 0 0-1.88-1.402c-.743-.312-1.617-.528-2.891-.587C15.667.012 15.259 0 12 0z"/>
    <path d="M12 5.838a6.162 6.162 0 1 0 0 12.324 6.162 6.162 0 0 0 0-12.324zm0 10.162a3.999 3.999 0 1 1 0-8 3.999 3.999 0 0 1 0 8zm6.406-10.845a1.44 1.44 0 1 1-2.88 0 1.44 1.44 0 0 1 2.88 0z"/>
</svg>
